<?xml version="1.0" encoding="UTF-8" standalone="no"?>
<svg xmlns="http://www.w3.org/2000/svg" height="694.62" width="746" version="1.0">
 <g id="layer1" fill-rule="evenodd" transform="translate(0,-1.75)">
  <rect id="rect3241" height="179.04" width="615.04" y="472.57" x="58.022" fill="#fff"/>
  <path id="rect2396" d="m49.719 1.75v432.69h-49.719v261.94h746v-261.94h-26.66l-213.72-212.19v212.19h-8.43l-213.72-212.19v212.19h-184l-0.001-432.69h-49.75zm41.469 488.25h51.402v51.38h-51.402v-51.38zm102.43 0h51.41v51.38h-51.41v-51.38zm102.47 0h51.41v51.38h-51.41v-51.38zm102.44 0h51.41v51.38h-51.41v-51.38zm102.47 0h51.41v51.38h-51.41v-51.38zm102.44 0h51.4v51.38h-51.4v-51.38zm-512.25 99.47h51.402v51.37h-51.402v-51.37zm102.43 0h51.41v51.37h-51.41v-51.37zm102.47 0h51.41v51.37h-51.41v-51.37zm102.44 0h51.41v51.37h-51.41v-51.37zm102.47 0h51.41v51.37h-51.41v-51.37zm102.44 0h51.4v51.37h-51.4v-51.37z"/>
 </g>
</svg>
