<?xml version="1.0" encoding="UTF-8" standalone="no"?>
<svg width="1549px" height="892px" viewBox="0 0 1549 892" version="1.1" xmlns="http://www.w3.org/2000/svg">
    <g id="Page-1" stroke="none" stroke-width="1" fill="none" fill-rule="evenodd">
        <g id="Muskets-HUGE" transform="translate(-50.000000, -43.000000)" fill="#2F3237">
            <g id="Musket" transform="translate(824.500000, 473.894083) rotate(-25.000000) translate(-824.500000, -473.894083) translate(-27.000000, 347.894083)">
                <path d="M151.917974,101.061426 C98.0346309,105.026482 11.6224651,115.722481 11.6224651,115.722481 C11.6224651,115.722481 0.274706409,119.75035 -0.156391057,121.201348 C-2.90540821,130.454049 21.4454192,154.660294 24.234415,178.087448 C27.0234108,201.514603 23.3369959,216.158632 23.3369959,231.760803 C23.3369959,242.931549 28.2523782,250.600739 30.6104639,251.935761 C32.9685495,253.270783 59.3151116,244.608029 59.3151116,244.608029 C59.3151116,244.608029 156.124492,215.863213 203.611522,199.333832 C264.754051,178.051218 385.203788,131.172042 385.203788,131.172042 C385.203788,131.172042 393.192522,127.640632 401.084038,127.640632 C408.975554,127.640632 411.745525,137.055565 415.228374,143.275696 C418.711223,149.495827 428.695522,156.982132 445.901165,156.982132 C463.106807,156.982132 482.149076,144.267957 484.76292,136.568787 C487.376765,128.869617 485.763134,118.766419 485.763134,118.766419 C485.763134,118.766419 487.167571,117.368848 488.109234,114.455353 C488.674536,112.706312 489.398548,110.357522 491.296795,109.95221 C496.357079,108.871741 624.462678,105.925095 668.444835,105.925095 C712.426993,105.925095 787.042675,98.0917939 787.042675,98.0917939 L804.637191,97.6675607 L804.63717,95.1221614 L1153.67695,93.1563541 L1153.67695,90.8632575 L1484.6294,90.2534223 L1484.6294,91.6172658 L1504.58893,91.6172658 L1504.58893,89.8258747 C1504.58893,89.8258747 1529.29731,90.2534223 1547.16077,90.2534223 C1562.25929,90.2534223 1603.47489,89.8258747 1603.47489,89.8258747 L1670.20493,89.8258747 C1670.20493,89.8258747 1676.86009,89.7094592 1681.85392,93.1563541 C1686.84775,96.603249 1696.72879,94.8702729 1696.72879,94.8702729 L1696.72876,78.4573358 C1696.72876,78.4573358 1687.47783,77.3457951 1681.85392,80.6373311 C1676.23002,83.9288672 1670.20493,83.3066033 1670.20493,83.3066033 L1608.92363,83.3066033 L1610.38565,71.3021288 L1702.82771,71.6153322 L1702.82771,47.7654716 L1669.17453,47.5914689 L1669.1745,45.1550279 L1664.95062,42.0598654 L1657.58827,41.5527741 L1657.58833,45.1550285 L1655.8918,47.7654716 C1655.8918,47.7654716 1555.14825,48.0614148 1504.71028,47.7656819 C1504.69828,47.7656115 1504.71032,46.0836692 1504.71032,46.0836692 L1484.19274,46.0836692 L1484.19274,47.7654708 L1153.67698,45.6600477 L1153.67701,44.3011753 L1135.26447,44.3011753 L1135.2645,45.6600477 C1135.2645,45.6600477 804.63717,44.3011757 804.637191,44.3011757 C804.637212,44.3011757 804.637154,42.4305519 804.637154,42.4305519 L785.565993,42.4305519 L785.565959,44.3011757 L613.50642,43.8353536 L613.069652,36.2306244 L598.707714,36.2306244 L598.406444,33.701339 L588.08247,33.7013388 C588.08247,33.7013388 586.882885,28.1954605 582.159252,28.1954605 C577.435619,28.1954605 576.759228,33.3428661 576.759228,33.3428661 L576.311107,36.2306244 L573.760143,41.5527737 L475.677698,40.7498796 C475.677698,40.7498796 457.529447,41.865149 452.193506,43.0831623 C449.485036,43.7014136 420.612197,59.0690864 392.114915,71.6153322 C364.469859,83.7863759 337.135193,93.1563541 337.135193,93.1563541 C337.135193,93.1563541 324.649801,98.9580748 310.034206,98.9580748 C303.621363,98.9580748 297.276605,98.2715319 293.543571,97.0763685 C288.768598,95.5476193 286.63629,93.156357 286.63629,93.156357 C286.63629,93.156357 220.522226,96.0131193 151.917974,101.061426 Z M456.45229,115.407915 L465.713302,114.904228 L468.027645,116.833423 L474.720393,116.405252 L474.957637,118.81983 L477.022352,118.81983 C477.022352,118.81983 480.041537,119.832122 480.041537,132.146127 C480.041537,137.883277 476.671554,142.492271 471.243771,146.209291 C466.011439,149.792464 458.902666,152.567382 449.172139,153.63932 C429.347607,155.823238 418.223282,142.312823 417.481154,134.982206 C416.739027,127.651589 420.633738,121.540118 428.000754,120.916911 C435.367769,120.293703 434.909766,129.298083 434.909766,129.298083 C434.909766,129.298083 434.03018,135.356199 434.909767,140.136251 C435.789354,144.916303 440.105513,151.248779 442.087479,149.704059 C444.069445,148.159339 437.309307,146.462119 437.309307,134.982206 C437.309307,123.502293 449.232566,117.730631 449.232566,117.730631 L449.17214,116.00024 L456.45229,115.407915 Z" id="musket"></path>
                <path d="M446.414123,-0.443542124 C446.414123,-0.443542124 447.0107,8.69812321 448.459297,17.1741437 C449.820951,25.1414462 452.031584,32.7901207 452.031584,35.0349625 C452.031584,39.667981 448.281387,45.0580499 449.223217,51.4530343 C450.165046,57.8480187 472.159785,59.4202843 472.159785,52.4983227 C472.159785,45.5763611 472.146206,44.0755937 471.889623,41.6432956 C471.63304,39.2109976 476.776409,29.5586361 486.739048,29.5586361 C492.953453,29.5586361 498.47229,36.4358104 498.47229,36.4358104 L499.884895,35.0349621 L504.663982,41.0036472 L520.679901,41.0036472 L514.21997,35.0349621 L512.250091,35.333939 L509.248714,32.4298366 L507.36354,32.8987468 L504.663982,30.1519321 L507.016952,27.8845943 C507.016952,27.8845943 498.276691,17.1741432 485.735042,17.1741432 C474.267411,17.1741432 469.648719,23.8556541 465.459915,23.8556541 C461.271111,23.8556541 458.940865,20.6411813 457.862706,19.4120296 C454.074467,15.0932609 450.264738,-0.443542124 450.264738,-0.443542124 L446.414123,-0.443542124 Z" id="hammer"></path>
                <path d="M484.218773,119.807439 L509.863123,139.151273 C509.863123,139.151273 511.759294,141.341211 509.863123,143.595986 C507.966952,145.85076 505.226991,143.595986 505.226991,143.595986 L488.526126,130.84931 C488.526126,130.84931 487.438879,131.976594 485.828826,131.976594 C484.218773,131.976594 481.76657,131.935608 481.76657,131.693841 C481.76657,131.452074 478.081291,117.788396 478.081291,117.788396 L484.218773,119.807439 Z" id="Path-8"></path>
                <path d="M1138.68892,89.797703 C1138.68892,89.797703 1138.42475,99.0057182 1139.31161,100.482249 C1140.19848,101.958779 1141.65511,102.382805 1141.65511,102.382805 L1141.65511,124.562663 C1141.65511,124.562663 1141.58105,126.334375 1143.98271,126.334375 C1146.38436,126.334375 1146.38436,124.562663 1146.38436,124.562663 L1146.38436,102.382805 C1146.38436,102.382805 1148.54696,101.496638 1148.93788,100.813681 C1149.32881,100.130723 1149.31322,89.797703 1149.31322,89.797703 L1138.68892,89.797703 Z" id="Path-9"></path>
            </g>
            <g id="Musket-2" transform="translate(824.500000, 473.894083) scale(-1, 1) rotate(-25.000000) translate(-824.500000, -473.894083) translate(-27.000000, 347.894083)">
                <path d="M151.917974,101.061426 C98.0346309,105.026482 11.6224651,115.722481 11.6224651,115.722481 C11.6224651,115.722481 0.274706409,119.75035 -0.156391057,121.201348 C-2.90540821,130.454049 21.4454192,154.660294 24.234415,178.087448 C27.0234108,201.514603 23.3369959,216.158632 23.3369959,231.760803 C23.3369959,242.931549 28.2523782,250.600739 30.6104639,251.935761 C32.9685495,253.270783 59.3151116,244.608029 59.3151116,244.608029 C59.3151116,244.608029 156.124492,215.863213 203.611522,199.333832 C264.754051,178.051218 385.203788,131.172042 385.203788,131.172042 C385.203788,131.172042 393.192522,127.640632 401.084038,127.640632 C408.975554,127.640632 411.745525,137.055565 415.228374,143.275696 C418.711223,149.495827 428.695522,156.982132 445.901165,156.982132 C463.106807,156.982132 482.149076,144.267957 484.76292,136.568787 C487.376765,128.869617 485.763134,118.766419 485.763134,118.766419 C485.763134,118.766419 487.167571,117.368848 488.109234,114.455353 C488.674536,112.706312 489.398548,110.357522 491.296795,109.95221 C496.357079,108.871741 624.462678,105.925095 668.444835,105.925095 C712.426993,105.925095 787.042675,98.0917939 787.042675,98.0917939 L804.637191,97.6675607 L804.63717,95.1221614 L1153.67695,93.1563541 L1153.67695,90.8632575 L1484.6294,90.2534223 L1484.6294,91.6172658 L1504.58893,91.6172658 L1504.58893,89.8258747 C1504.58893,89.8258747 1529.29731,90.2534223 1547.16077,90.2534223 C1562.25929,90.2534223 1603.47489,89.8258747 1603.47489,89.8258747 L1670.20493,89.8258747 C1670.20493,89.8258747 1676.86009,89.7094592 1681.85392,93.1563541 C1686.84775,96.603249 1696.72879,94.8702729 1696.72879,94.8702729 L1696.72876,78.4573358 C1696.72876,78.4573358 1687.47783,77.3457951 1681.85392,80.6373311 C1676.23002,83.9288672 1670.20493,83.3066033 1670.20493,83.3066033 L1608.92363,83.3066033 L1610.38565,71.3021288 L1702.82771,71.6153322 L1702.82771,47.7654716 L1669.17453,47.5914689 L1669.1745,45.1550279 L1664.95062,42.0598654 L1657.58827,41.5527741 L1657.58833,45.1550285 L1655.8918,47.7654716 C1655.8918,47.7654716 1555.14825,48.0614148 1504.71028,47.7656819 C1504.69828,47.7656115 1504.71032,46.0836692 1504.71032,46.0836692 L1484.19274,46.0836692 L1484.19274,47.7654708 L1153.67698,45.6600477 L1153.67701,44.3011753 L1135.26447,44.3011753 L1135.2645,45.6600477 C1135.2645,45.6600477 804.63717,44.3011757 804.637191,44.3011757 C804.637212,44.3011757 804.637154,42.4305519 804.637154,42.4305519 L785.565993,42.4305519 L785.565959,44.3011757 L613.50642,43.8353536 L613.069652,36.2306244 L598.707714,36.2306244 L598.406444,33.701339 L588.08247,33.7013388 C588.08247,33.7013388 586.882885,28.1954605 582.159252,28.1954605 C577.435619,28.1954605 576.759228,33.3428661 576.759228,33.3428661 L576.311107,36.2306244 L573.760143,41.5527737 L475.677698,40.7498796 C475.677698,40.7498796 457.529447,41.865149 452.193506,43.0831623 C449.485036,43.7014136 420.612197,59.0690864 392.114915,71.6153322 C364.469859,83.7863759 337.135193,93.1563541 337.135193,93.1563541 C337.135193,93.1563541 324.649801,98.9580748 310.034206,98.9580748 C303.621363,98.9580748 297.276605,98.2715319 293.543571,97.0763685 C288.768598,95.5476193 286.63629,93.156357 286.63629,93.156357 C286.63629,93.156357 220.522226,96.0131193 151.917974,101.061426 Z M456.45229,115.407915 L465.713302,114.904228 L468.027645,116.833423 L474.720393,116.405252 L474.957637,118.81983 L477.022352,118.81983 C477.022352,118.81983 480.041537,119.832122 480.041537,132.146127 C480.041537,137.883277 476.671554,142.492271 471.243771,146.209291 C466.011439,149.792464 458.902666,152.567382 449.172139,153.63932 C429.347607,155.823238 418.223282,142.312823 417.481154,134.982206 C416.739027,127.651589 420.633738,121.540118 428.000754,120.916911 C435.367769,120.293703 434.909766,129.298083 434.909766,129.298083 C434.909766,129.298083 434.03018,135.356199 434.909767,140.136251 C435.789354,144.916303 440.105513,151.248779 442.087479,149.704059 C444.069445,148.159339 437.309307,146.462119 437.309307,134.982206 C437.309307,123.502293 449.232566,117.730631 449.232566,117.730631 L449.17214,116.00024 L456.45229,115.407915 Z" id="musket"></path>
                <path d="M446.414123,-0.443542124 C446.414123,-0.443542124 447.0107,8.69812321 448.459297,17.1741437 C449.820951,25.1414462 452.031584,32.7901207 452.031584,35.0349625 C452.031584,39.667981 448.281387,45.0580499 449.223217,51.4530343 C450.165046,57.8480187 472.159785,59.4202843 472.159785,52.4983227 C472.159785,45.5763611 472.146206,44.0755937 471.889623,41.6432956 C471.63304,39.2109976 476.776409,29.5586361 486.739048,29.5586361 C492.953453,29.5586361 498.47229,36.4358104 498.47229,36.4358104 L499.884895,35.0349621 L504.663982,41.0036472 L520.679901,41.0036472 L514.21997,35.0349621 L512.250091,35.333939 L509.248714,32.4298366 L507.36354,32.8987468 L504.663982,30.1519321 L507.016952,27.8845943 C507.016952,27.8845943 498.276691,17.1741432 485.735042,17.1741432 C474.267411,17.1741432 469.648719,23.8556541 465.459915,23.8556541 C461.271111,23.8556541 458.940865,20.6411813 457.862706,19.4120296 C454.074467,15.0932609 450.264738,-0.443542124 450.264738,-0.443542124 L446.414123,-0.443542124 Z" id="hammer"></path>
                <path d="M484.218773,119.807439 L509.863123,139.151273 C509.863123,139.151273 511.759294,141.341211 509.863123,143.595986 C507.966952,145.85076 505.226991,143.595986 505.226991,143.595986 L488.526126,130.84931 C488.526126,130.84931 487.438879,131.976594 485.828826,131.976594 C484.218773,131.976594 481.76657,131.935608 481.76657,131.693841 C481.76657,131.452074 478.081291,117.788396 478.081291,117.788396 L484.218773,119.807439 Z" id="Path-8"></path>
                <path d="M1138.68892,89.797703 C1138.68892,89.797703 1138.42475,99.0057182 1139.31161,100.482249 C1140.19848,101.958779 1141.65511,102.382805 1141.65511,102.382805 L1141.65511,124.562663 C1141.65511,124.562663 1141.58105,126.334375 1143.98271,126.334375 C1146.38436,126.334375 1146.38436,124.562663 1146.38436,124.562663 L1146.38436,102.382805 C1146.38436,102.382805 1148.54696,101.496638 1148.93788,100.813681 C1149.32881,100.130723 1149.31322,89.797703 1149.31322,89.797703 L1138.68892,89.797703 Z" id="Path-9"></path>
            </g>
        </g>
    </g>
</svg>