<?xml version="1.0" encoding="UTF-8"?>
<svg width="210mm" height="33mm" version="1.1" viewBox="0 0 210 33" xmlns="http://www.w3.org/2000/svg">
    <g transform="translate(0,-264)">
        <g transform="matrix(.97402 0 0 1.1647 36.2 170.28)">
            <path transform="matrix(.26458 0 0 .26458 -2.7128 3.5547)" d="m668.95 292-3.1387 8e-3 -0.0391 4.2305h-321.9l-82.184-0.0625-0.0625-1.5508-29.717 0.19922 0.0215 1.4141h-31.928l-3.5 2h-47.482a5.4801 5.4801 0 0 0 2e-3 -0.0254 5.4801 5.4801 0 0 0 -5.4805 -5.4785 5.4801 5.4801 0 0 0 -5.4277 4.7637l-2.3613-1.2598h-53.881l0.04492 5.8984-62.219 16.568-20.01-9.3789-6.4531-3.0254-8.5977-0.90626-13.457-1.4199-101.3 5.998 11.922 87.738 213.05-61.295c0.9714-0.18517 2.9119 0.15783 2.8809 2.3379l0.06641 4.8965c0.13258 6.7712 3.7278 9.3903 7.8242 9.6836l24.926-1.873 76.277-14.904 8.9727-0.8457h16l112.08-12.621 229-2e-3h67.58l36.18-0.0137 0.0352-5.0605-38.479 0.0703-0.0547-14.355 46.117 2e-3v-7.4922l-15.311 0.0215zm-551.52 44.838c4.7491 1.7591 5.9869 10.049 1.7656 13.777l-13.605 0.86914c-3.7836 0.19806-5.912-3.1881-5.7598-7.9336l0.10547-2.8672c0.16294-2.3696 1.3462-3.2971 3.4375-3.2695z" stroke-width=".17038"/>
        </g>
    </g>
</svg>
