<?xml version="1.0" encoding="UTF-8"?>
<svg width="18px" height="31.371px" enable-background="new 6.69 0 18 31.371" version="1.1" viewBox="6.69 0 18 31.371" xml:space="preserve" xmlns="http://www.w3.org/2000/svg" xmlns:cc="http://creativecommons.org/ns#" xmlns:dc="http://purl.org/dc/elements/1.1/" xmlns:rdf="http://www.w3.org/1999/02/22-rdf-syntax-ns#"><metadata><rdf:RDF><cc:Work rdf:about=""><dc:format>image/svg+xml</dc:format><dc:type rdf:resource="http://purl.org/dc/dcmitype/StillImage"/></cc:Work></rdf:RDF></metadata>
<g fill="#ffc64f" fill-opacity=".95652">
	<path d="m24.26 20.34c0 3.42-2.423 6.342-6.845 7.111v3.92h-3.768v-3.648c-2.578-0.117-5.076-0.811-6.537-1.654l1.154-4.5c1.615 0.886 3.883 1.693 6.383 1.693 2.191 0 3.691-0.848 3.691-2.385 0-1.461-1.23-2.389-4.077-3.348-4.112-1.385-6.921-3.306-6.921-7.033 0-3.386 2.385-6.035 6.499-6.845v-3.651h3.767v3.383c2.576 0.115 4.309 0.652 5.576 1.268l-1.115 4.348c-0.997-0.424-2.767-1.311-5.536-1.311-2.5 0-3.307 1.076-3.307 2.154 0 1.268 1.346 2.074 4.613 3.307 4.579 1.613 6.423 3.728 6.423 7.191z" fill="#ffc64f" fill-opacity=".95652"/>
</g>
</svg>