<?xml version="1.0" encoding="UTF-8" standalone="no"?>
<!-- Generator: Adobe Illustrator 16.0.0, SVG Export Plug-In . SVG Version: 6.00 Build 0)  -->

<svg
		xmlns:dc="http://purl.org/dc/elements/1.1/"
		xmlns:cc="http://creativecommons.org/ns#"
		xmlns:rdf="http://www.w3.org/1999/02/22-rdf-syntax-ns#"
		xmlns="http://www.w3.org/2000/svg"
		xmlns:sodipodi="http://sodipodi.sourceforge.net/DTD/sodipodi-0.dtd"
		xmlns:inkscape="http://www.inkscape.org/namespaces/inkscape"
		version="1.1"
		id="Layer_1"
		x="0px"
		y="0px"
		width="512px"
		height="512px"
		viewBox="0 0 512 512"
		enable-background="new 0 0 512 512"
		xml:space="preserve"
		sodipodi:docname="food.svg"
		inkscape:version="0.92.3 (2405546, 2018-03-11)"><metadata
   id="metadata831"><rdf:RDF><cc:Work
       rdf:about=""><dc:format>image/svg+xml</dc:format><dc:type
         rdf:resource="http://purl.org/dc/dcmitype/StillImage" /></cc:Work></rdf:RDF></metadata><defs
   id="defs829" /><sodipodi:namedview
   pagecolor="#ffffff"
   bordercolor="#666666"
   borderopacity="1"
   objecttolerance="10"
   gridtolerance="10"
   guidetolerance="10"
   inkscape:pageopacity="0"
   inkscape:pageshadow="2"
   inkscape:window-width="1920"
   inkscape:window-height="1017"
   id="namedview827"
   showgrid="false"
   inkscape:zoom="0.5"
   inkscape:cx="-267.21207"
   inkscape:cy="5.684339"
   inkscape:window-x="-8"
   inkscape:window-y="-8"
   inkscape:window-maximized="1"
   inkscape:current-layer="Layer_1" />
<path
   style="fill:#c69957;fill-opacity:1"
   d="m 374.977,9.585 c -11.154,0 -22.133,1.901 -32.639,5.64 -9.824,3.517 -20.709,3.517 -30.5,0 -10.439,-3.738 -21.421,-5.64 -32.639,-5.64 -31.214,0 -50.242,12.672 -76.863,37.639 -6.923,6.492 -117.119,112.635 -129.201,125.919 -28.641,31.491 -42.938,49.825 -42.938,85.445 0,27.76 11.534,53.602 31.908,72.091 v 116.675 c 0,29.582 24.067,53.649 53.649,53.649 h 119.953 c 14.313,0 27.018,-5.914 36.8,-14.873 0.019,-0.017 0.031,-0.025 0.049,-0.042 40.184,-38.948 138.352,-140.19 142.984,-144.826 12.589,-12.602 25.157,-26.196 25.157,-45.296 V 179.305 c 20.376,-18.489 31.91,-44.331 31.91,-72.089 0,-53.839 -43.793,-97.631 -97.63,-97.631 z"
   id="path872" /><path
   style="fill:#fad3ac;fill-opacity:1"
   d="m 263.229,310.24 c -3.992,3.074 -6.337,7.828 -6.337,12.866 v 124.249 c 0,11.693 -9.507,21.2 -21.185,21.2 H 115.754 c -11.693,0 -21.2,-9.507 -21.2,-21.2 v -124.25 c 0,-5.038 -2.345,-9.808 -6.354,-12.866 -16.238,-12.468 -25.555,-31.292 -25.555,-51.652 0,-35.933 29.248,-65.181 65.182,-65.181 7.479,0 14.768,1.251 21.723,3.754 16.889,6.021 35.49,5.99 52.349,0 6.97,-2.487 14.274,-3.754 21.706,-3.754 35.95,0 65.197,29.248 65.197,65.181 -0.001,20.347 -9.318,39.168 -25.573,51.653 z"
   id="path824" />
</svg>