<?xml version="1.0" encoding="UTF-8" standalone="no"?>
<svg
		xmlns:dc="http://purl.org/dc/elements/1.1/"
		xmlns:cc="http://creativecommons.org/ns#"
		xmlns:rdf="http://www.w3.org/1999/02/22-rdf-syntax-ns#"
		xmlns="http://www.w3.org/2000/svg"
		xml:space="preserve"
		style="enable-background:new 0 0 512 512;"
		viewBox="0 0 512 512"
		y="0px"
		x="0px"
		id="Layer_1"
		version="1.1"><metadata
   id="metadata899"><rdf:RDF><cc:Work
       rdf:about=""><dc:format>image/svg+xml</dc:format><dc:type
         rdf:resource="http://purl.org/dc/dcmitype/StillImage" /><dc:title></dc:title></cc:Work></rdf:RDF></metadata><defs
   id="defs897" />
<g
   style="fill:#3988c5;fill-opacity:1"
   id="g862">
	<g
   style="fill:#3988c5;fill-opacity:1"
   id="g860">
		<path
   style="fill:#3988c5;fill-opacity:1"
   id="path858"
   d="M 461.729,432.5 461.708,432.49 320,199.677 V 62.035 C 332.389,57.617 341.333,45.888 341.333,32 c 0,-17.646 -14.354,-32 -32,-32 H 202.667 c -17.646,0 -32,14.354 -32,32 0,13.888 8.944,25.617 21.333,30.035 V 199.677 L 50.271,432.5 c -4.979,8.198 -7.604,17.594 -7.604,27.229 0,28.823 23.458,52.271 52.271,52.271 h 322.125 c 28.813,0 52.271,-23.448 52.271,-52.333 -10e-4,-9.573 -2.626,-18.969 -7.605,-27.167 z M 207.667,256 230.021,219.281 c 3.042,-5.031 4.646,-10.771 4.646,-16.615 V 64 h 42.667 v 138.667 c 0,5.844 1.604,11.583 4.667,16.635 L 304.337,256 Z" />
	</g>
</g>
<g
   id="g864">
</g>
<g
   id="g866">
</g>
<g
   id="g868">
</g>
<g
   id="g870">
</g>
<g
   id="g872">
</g>
<g
   id="g874">
</g>
<g
   id="g876">
</g>
<g
   id="g878">
</g>
<g
   id="g880">
</g>
<g
   id="g882">
</g>
<g
   id="g884">
</g>
<g
   id="g886">
</g>
<g
   id="g888">
</g>
<g
   id="g890">
</g>
<g
   id="g892">
</g>
</svg>